<svg width="111" height="36" viewBox="0 0 111 36" fill="none" xmlns="http://www.w3.org/2000/svg">
<path d="M1.96777 6.96094H10.187C11.8722 6.96094 13.3203 7.21322 14.5312 7.71777C15.7523 8.22233 16.6908 8.96908 17.3467 9.95801C18.0026 10.9469 18.3306 12.1629 18.3306 13.606C18.3306 14.7866 18.1287 15.8008 17.7251 16.6484C17.3315 17.486 16.7715 18.1873 16.0449 18.7524C15.3285 19.3075 14.4858 19.7515 13.5171 20.0845L12.0791 20.8413H4.93457L4.9043 17.2993H10.2173C11.0145 17.2993 11.6755 17.158 12.2002 16.8755C12.7249 16.5929 13.1185 16.1994 13.3809 15.6948C13.6533 15.1903 13.7896 14.605 13.7896 13.939C13.7896 13.2326 13.6584 12.6221 13.396 12.1074C13.1336 11.5928 12.735 11.1992 12.2002 10.9268C11.6654 10.6543 10.9943 10.5181 10.187 10.5181H6.50879V29H1.96777V6.96094ZM14.2891 29L9.26367 19.1763L14.062 19.146L19.1479 28.7881V29H14.2891ZM55.6093 6.96094V29H51.0834V6.96094H55.6093ZM62.3905 6.96094V10.5181H44.4081V6.96094H62.3905ZM68.6026 6.96094H72.4474L78.1085 23.1421L83.7696 6.96094H87.6144L79.6524 29H76.5646L68.6026 6.96094ZM66.5289 6.96094H70.3585L71.0548 22.7334V29H66.5289V6.96094ZM85.8585 6.96094H89.7032V29H85.1622V22.7334L85.8585 6.96094ZM110.023 25.458V29H98.2918V25.458H110.023ZM99.7752 6.96094V29H95.2342V6.96094H99.7752ZM108.494 15.937V19.3882H98.2918V15.937H108.494ZM110.008 6.96094V10.5181H98.2918V6.96094H110.008Z" fill="white"/>
<path d="M28.087 28V17.3103C28.087 16.7581 27.6392 16.3103 27.087 16.3103H25.2635C24.3949 16.3103 23.9393 15.2791 24.5242 14.637L31.6192 6.84762C32.0275 6.39938 32.7375 6.41468 33.1261 6.88009L39.6299 14.6694C40.1736 15.3206 39.7106 16.3103 38.8623 16.3103H36.5217C35.9695 16.3103 35.5217 16.7581 35.5217 17.3103V28C35.5217 28.5523 35.074 29 34.5217 29H29.087C28.5347 29 28.087 28.5523 28.087 28Z" stroke="#5E5CE6" stroke-width="2.2"/>
</svg>
